<svg xmlns="http://www.w3.org/2000/svg" width="16" height="16" viewBox="0 0 16 16">
  <g id="oc-favicon-gelb" transform="translate(-309.721 -479.721)">
    <rect id="BG" width="16" height="16" transform="translate(309.721 479.721)" fill="#00c6b2"/>
    <path id="Path_775" data-name="Path 775" d="M.984-2.1C.984-3.462,1-4.446.2-5.241A2.845,2.845,0,0,0-1.922-6.1a2.87,2.87,0,0,0-2.133.862c-.8.8-.773,1.779-.773,3.138S-4.85.24-4.055,1.035A2.87,2.87,0,0,0-1.922,1.9,2.845,2.845,0,0,0,.2,1.035C1,.24.984-.744.984-2.1Zm-1.536,0C-.552-.589-.64-.225-.938.107a1.277,1.277,0,0,1-.983.42,1.3,1.3,0,0,1-.994-.42c-.3-.331-.376-.7-.376-2.21s.077-1.878.376-2.21a1.3,1.3,0,0,1,.994-.42,1.277,1.277,0,0,1,.983.42C-.64-3.981-.552-3.617-.552-2.1ZM7.968-.589H6.41A1.3,1.3,0,0,1,5.084.527,1.215,1.215,0,0,1,4.1.118c-.32-.343-.387-.7-.387-2.221S3.78-3.981,4.1-4.324a1.215,1.215,0,0,1,.983-.409A1.3,1.3,0,0,1,6.41-3.617H7.968A2.772,2.772,0,0,0,5.073-6.1a2.883,2.883,0,0,0-2.122.862A2.235,2.235,0,0,0,2.31-4.059,10.735,10.735,0,0,0,2.178-2.1,10.735,10.735,0,0,0,2.31-.147a2.276,2.276,0,0,0,.641,1.182A2.883,2.883,0,0,0,5.073,1.9,2.779,2.779,0,0,0,7.968-.589Z" transform="translate(316.151 489.823)" fill="#fff"/>
  </g>
</svg>
